#N canvas 362 93 675 694 10;
#X obj -142 274 *~;
#X obj -143 336 +~;
#X obj -31 246 *~ 256;
#X obj -144 447 *~;
#X obj -143 304 samphold~;
#X floatatom 17 141 5 0 0 0 - - -, f 5;
#X obj 17 202 min;
#X obj -30 139 vline~;
#X obj -30 87 f;
#X msg -30 113 0 0 \, 1 \$1 0;
#X obj 17 181 * 44.1;
#X obj 5 -7 / 44.1;
#X obj 0 32 *;
#N canvas 0 22 1366 702 envelope 0;
#X obj 23 28 inlet~;
#X obj 23 259 outlet~;
#X obj 23 109 cos~;
#X obj 23 131 *~ 0.5;
#X obj 24 160 +~ 0.5;
#X obj 24 67 +~ 0.5;
#X obj 24 88 wrap~;
#X obj 79 115 sig~ 1;
#X obj 79 143 -~;
#X text 121 112 Ramp down;
#X text 73 66 hanning shaper;
#N canvas 276 152 450 300 multiplexer 0;
#X obj 223 63 unpack f f f;
#X obj 223 -28 sel 0 1 2;
#X msg 223 -6 1 0 0;
#X msg 240 16 0 1 0;
#X msg 257 38 0 0 1;
#X obj 25 114 *~;
#X obj 72 115 *~;
#X obj 115 116 *~;
#X obj 26 -34 inlet~;
#X obj 71 -34 inlet~;
#X obj 116 -33 inlet~;
#X obj 40 80 sig~;
#X obj 86 80 sig~;
#X obj 131 80 sig~;
#X obj 24 154 outlet~;
#X obj 223 -52 inlet;
#X connect 0 0 11 0;
#X connect 0 1 12 0;
#X connect 0 2 13 0;
#X connect 1 0 2 0;
#X connect 1 1 3 0;
#X connect 1 2 4 0;
#X connect 2 0 0 0;
#X connect 3 0 0 0;
#X connect 4 0 0 0;
#X connect 5 0 14 0;
#X connect 6 0 14 0;
#X connect 7 0 14 0;
#X connect 8 0 5 0;
#X connect 9 0 6 0;
#X connect 10 0 7 0;
#X connect 11 0 5 1;
#X connect 12 0 6 1;
#X connect 13 0 7 1;
#X connect 15 0 1 0;
#X restore 24 233 pd multiplexer;
#X obj 207 146 route hanning decay attack;
#X msg 207 172 0;
#X msg 208 192 1;
#X msg 209 216 2;
#X obj 207 121 inlet;
#X connect 0 0 5 0;
#X connect 0 0 8 1;
#X connect 0 0 11 2;
#X connect 2 0 3 0;
#X connect 3 0 4 0;
#X connect 4 0 11 0;
#X connect 5 0 6 0;
#X connect 6 0 2 0;
#X connect 7 0 8 0;
#X connect 8 0 11 1;
#X connect 11 0 1 0;
#X connect 12 0 13 0;
#X connect 12 1 14 0;
#X connect 12 2 15 0;
#X connect 13 0 11 3;
#X connect 14 0 11 3;
#X connect 15 0 11 3;
#X connect 16 0 12 0;
#X restore -129 416 pd envelope;
#X obj 2 224 f;
#X obj -144 538 *~;
#X obj -93 540 *~;
#X obj 43 452 sig~;
#X obj 43 474 samphold~;
#X obj 30 523 -~;
#X obj 30 497 sig~ 1;
#X obj -145 512 *~;
#X obj -111 495 1;
#X obj -111 28 r \$1-\$2-metro;
#X obj 0 -51 r \$1-grainlength;
#X obj 5 -31 r \$1-samples;
#X obj 64 181 r \$1-samples;
#X obj 43 360 r \$1-pan;
#X obj -66 392 r \$1-envelope;
#X obj -127 252 r \$1-samples;
#X obj -145 566 throw~ \$1-out_L;
#X obj -48 566 throw~ \$1-out_R;
#X obj -143 182 receive~ \$1-pos;
#N canvas 0 22 830 694 randomize 0;
#X obj 240 72 random 1000;
#X obj 240 112 * 0.001;
#X obj 240 42 bng 15 250 50 0 empty empty empty 17 7 0 10 -262144 -1
-1;
#X obj 240 147 *;
#X floatatom 343 106 5 0 0 0 - - -, f 5;
#X obj 240 283 +;
#X obj 240 92 - 500;
#X floatatom 240 314 5 0 0 0 - - -, f 5;
#X floatatom 255 263 5 0 0 0 - - -, f 5;
#X obj 280 456 tgl 15 0 empty empty empty 17 7 0 10 -262144 -1 -1 1
1;
#X obj 241 551 spigot;
#X obj 144 546 spigot;
#X obj 144 503 * -1;
#X floatatom 144 632 5 0 0 0 - - -, f 5;
#X obj 353 442 tgl 15 0 empty empty empty 17 7 0 10 -262144 -1 -1 0
1;
#X obj 353 408 >= 1;
#X obj 376 596 spigot;
#X obj 280 525 tgl 15 0 empty empty empty 17 7 0 10 -262144 -1 -1 1
1;
#X obj 240 342 t f f;
#X obj 232 426 == 0;
#X obj 315 424 == 0;
#X obj 280 498 &&;
#X obj 370 464 wrap;
#X obj 375 574 -;
#X obj 373 501 t b f;
#X obj 280 409 >= 0;
#X obj 315 455 tgl 15 0 empty empty empty 17 7 0 10 -262144 -1 -1 1
1;
#X msg 377 539 1;
#X obj 255 241 inlet;
#X obj 240 22 r \$1-\$2-metro;
#X obj 343 81 inlet;
#X obj 144 660 outlet;
#X connect 0 0 6 0;
#X connect 1 0 3 0;
#X connect 2 0 0 0;
#X connect 3 0 5 0;
#X connect 4 0 3 1;
#X connect 5 0 7 0;
#X connect 6 0 1 0;
#X connect 7 0 18 0;
#X connect 8 0 5 1;
#X connect 9 0 21 0;
#X connect 10 0 13 0;
#X connect 11 0 13 0;
#X connect 12 0 11 0;
#X connect 13 0 31 0;
#X connect 14 0 16 1;
#X connect 15 0 14 0;
#X connect 15 0 20 0;
#X connect 16 0 13 0;
#X connect 17 0 10 1;
#X connect 18 0 10 0;
#X connect 18 0 12 0;
#X connect 18 0 22 0;
#X connect 18 1 15 0;
#X connect 18 1 25 0;
#X connect 19 0 11 1;
#X connect 20 0 26 0;
#X connect 21 0 17 0;
#X connect 22 0 24 0;
#X connect 23 0 16 0;
#X connect 24 0 27 0;
#X connect 24 1 23 1;
#X connect 25 0 9 0;
#X connect 25 0 19 0;
#X connect 26 0 21 1;
#X connect 27 0 23 0;
#X connect 28 0 8 0;
#X connect 29 0 2 0;
#X connect 30 0 4 0;
#X restore 43 432 pd randomize;
#N canvas 610 34 675 694 randomizesig 1;
#X obj 250 82 random 1000;
#X obj 250 122 * 0.001;
#X obj 250 52 bng 15 250 50 0 empty empty empty 17 7 0 10 -262144 -1
-1;
#X obj 250 157 *;
#X floatatom 353 116 5 0 0 0 - - -, f 5;
#X obj 250 102 - 500;
#X obj 250 32 r \$1-\$2-metro;
#X obj 353 91 inlet;
#X obj 250 233 +~;
#X obj 250 188 sig~;
#X obj 285 188 inlet~;
#X obj 430 444 wrap~;
#X obj 370 476 sig~ 1;
#X obj 385 524 -~;
#X obj 386 546 *~;
#X obj 251 501 *~;
#X obj 154 496 *~;
#X obj 154 453 *~ -1;
#X obj 155 618 outlet~;
#X connect 0 0 5 0;
#X connect 1 0 3 0;
#X connect 2 0 0 0;
#X connect 3 0 9 0;
#X connect 4 0 3 1;
#X connect 5 0 1 0;
#X connect 6 0 2 0;
#X connect 7 0 4 0;
#X connect 8 0 11 0;
#X connect 8 0 17 0;
#X connect 8 0 15 0;
#X connect 8 0 16 1;
#X connect 8 0 15 1;
#X connect 8 0 14 1;
#X connect 9 0 8 0;
#X connect 10 0 8 1;
#X connect 11 0 13 1;
#X connect 12 0 13 0;
#X connect 13 0 14 0;
#X connect 14 0 18 0;
#X connect 15 0 18 0;
#X connect 16 0 18 0;
#X connect 17 0 16 0;
#X restore -143 227 pd randomizesig;
#N canvas 0 22 830 694 randomize 0;
#X obj 240 72 random 1000;
#X obj 240 112 * 0.001;
#X obj 240 42 bng 15 250 50 0 empty empty empty 17 7 0 10 -262144 -1
-1;
#X obj 240 147 *;
#X floatatom 343 106 5 0 0 0 - - -, f 5;
#X obj 240 283 +;
#X obj 240 92 - 500;
#X floatatom 240 314 5 0 0 0 - - -, f 5;
#X floatatom 255 263 5 0 0 0 - - -, f 5;
#X obj 280 456 tgl 15 0 empty empty empty 17 7 0 10 -262144 -1 -1 1
1;
#X obj 241 551 spigot;
#X obj 144 546 spigot;
#X obj 144 503 * -1;
#X floatatom 144 632 5 0 0 0 - - -, f 5;
#X obj 353 442 tgl 15 0 empty empty empty 17 7 0 10 -262144 -1 -1 1
1;
#X obj 353 408 >= 1;
#X obj 376 596 spigot;
#X obj 280 525 tgl 15 0 empty empty empty 17 7 0 10 -262144 -1 -1 0
1;
#X obj 240 342 t f f;
#X obj 232 426 == 0;
#X obj 315 424 == 0;
#X obj 280 498 &&;
#X obj 370 464 wrap;
#X obj 375 574 -;
#X obj 373 501 t b f;
#X obj 280 409 >= 0;
#X obj 315 455 tgl 15 0 empty empty empty 17 7 0 10 -262144 -1 -1 0
1;
#X msg 377 539 1;
#X obj 255 241 inlet;
#X obj 240 22 r \$1-\$2-metro;
#X obj 343 81 inlet;
#X obj 144 660 outlet;
#X obj 131 245 r \$1-collision;
#X floatatom 139 280 5 0 0 0 - - -, f 5;
#X connect 0 0 6 0;
#X connect 1 0 3 0;
#X connect 2 0 0 0;
#X connect 3 0 5 0;
#X connect 4 0 3 1;
#X connect 5 0 7 0;
#X connect 6 0 1 0;
#X connect 7 0 18 0;
#X connect 8 0 5 1;
#X connect 9 0 21 0;
#X connect 10 0 13 0;
#X connect 11 0 13 0;
#X connect 12 0 11 0;
#X connect 13 0 31 0;
#X connect 14 0 16 1;
#X connect 15 0 14 0;
#X connect 15 0 20 0;
#X connect 16 0 13 0;
#X connect 17 0 10 1;
#X connect 18 0 10 0;
#X connect 18 0 12 0;
#X connect 18 0 22 0;
#X connect 18 1 15 0;
#X connect 18 1 25 0;
#X connect 19 0 11 1;
#X connect 20 0 26 0;
#X connect 21 0 17 0;
#X connect 22 0 24 0;
#X connect 23 0 16 0;
#X connect 24 0 27 0;
#X connect 24 1 23 1;
#X connect 25 0 9 0;
#X connect 25 0 19 0;
#X connect 26 0 21 1;
#X connect 27 0 23 0;
#X connect 28 0 8 0;
#X connect 29 0 2 0;
#X connect 30 0 4 0;
#X connect 32 0 5 0;
#X connect 32 0 33 0;
#X restore -96 469 pd randomize;
#X obj 112 405 r \$1-panrnd;
#X obj 185 405 r \$1-amprnd;
#X obj 114 129 r \$1-posrnd;
#X obj -96 447 r \$1-amp;
#X obj -144 359 tabread4~ \$1-buffer;
#X floatatom 258 -3 5 0 0 0 - - -, f 5;
#X floatatom 258 104 5 0 0 0 - - -, f 5;
#X obj 258 16 / 12;
#X obj 258 82 pow 2;
#X obj 258 36 t b f;
#X msg 258 59 2;
#X obj 243 149 sig~;
#X obj -31 209 *~;
#X obj 258 -30 r \$1-pitch;
#X floatatom 24 60 5 0 0 0 - - -, f 5;
#X obj 243 126 f;
#X floatatom -78 492 5 0 0 0 - - -, f 5;
#N canvas 980 344 450 300 direction 0;
#X obj 47 29 inlet~;
#X obj 49 241 outlet~;
#X obj 120 133 -~;
#X obj 120 106 sig~ 1;
#X obj 119 165 *~;
#X obj 176 126 == 0;
#X obj 176 148 sig~;
#X obj 48 160 *~;
#X obj 62 121 sig~;
#X obj 173 -44 r \$1-direction;
#X obj 176 20 sel fwd rev;
#X msg 176 49 1;
#X msg 207 50 0;
#X obj 176 68 tgl 15 0 empty empty empty 17 7 0 10 -262144 -1 -1 1
1;
#X obj 173 -20 list prepend symbol;
#X obj 175 -1 list trim;
#X connect 0 0 7 0;
#X connect 0 0 2 1;
#X connect 2 0 4 0;
#X connect 3 0 2 0;
#X connect 4 0 1 0;
#X connect 5 0 6 0;
#X connect 6 0 4 1;
#X connect 7 0 1 0;
#X connect 8 0 7 1;
#X connect 9 0 14 0;
#X connect 10 0 11 0;
#X connect 10 1 12 0;
#X connect 11 0 13 0;
#X connect 12 0 13 0;
#X connect 13 0 5 0;
#X connect 13 0 8 0;
#X connect 14 0 15 0;
#X connect 15 0 10 0;
#X restore -31 160 pd direction;
#X obj 5 13 t b f;
#X obj 43 384 + 1;
#X obj 43 407 * 0.5;
#X obj -111 57 t b b;
#X obj 12 263 r \$1-buffer;
#X obj 12 284 unpack s f;
#X obj 12 303 list prepend set;
#X obj 12 328 list trim;
#X connect 0 0 4 0;
#X connect 1 0 40 0;
#X connect 2 0 1 1;
#X connect 2 0 4 1;
#X connect 2 0 18 1;
#X connect 3 0 21 0;
#X connect 4 0 1 0;
#X connect 5 0 10 0;
#X connect 6 0 14 1;
#X connect 7 0 13 0;
#X connect 7 0 53 0;
#X connect 8 0 9 0;
#X connect 9 0 7 0;
#X connect 10 0 6 0;
#X connect 11 0 54 0;
#X connect 12 0 5 0;
#X connect 12 0 8 1;
#X connect 12 0 50 0;
#X connect 13 0 3 1;
#X connect 14 0 2 1;
#X connect 15 0 30 0;
#X connect 16 0 31 0;
#X connect 17 0 18 0;
#X connect 18 0 19 1;
#X connect 18 0 15 1;
#X connect 19 0 16 1;
#X connect 20 0 19 0;
#X connect 21 0 15 0;
#X connect 21 0 16 0;
#X connect 22 0 21 1;
#X connect 23 0 57 0;
#X connect 24 0 12 0;
#X connect 25 0 11 0;
#X connect 26 0 6 1;
#X connect 27 0 55 0;
#X connect 28 0 13 1;
#X connect 29 0 0 1;
#X connect 32 0 34 0;
#X connect 33 0 17 0;
#X connect 34 0 0 0;
#X connect 35 0 22 1;
#X connect 35 0 52 0;
#X connect 36 0 33 1;
#X connect 37 0 35 1;
#X connect 38 0 34 1;
#X connect 39 0 35 0;
#X connect 40 0 3 0;
#X connect 41 0 43 0;
#X connect 42 0 51 1;
#X connect 43 0 45 0;
#X connect 44 0 42 0;
#X connect 45 0 46 0;
#X connect 45 1 44 1;
#X connect 46 0 44 0;
#X connect 47 0 48 1;
#X connect 48 0 2 0;
#X connect 49 0 41 0;
#X connect 51 0 47 0;
#X connect 53 0 48 0;
#X connect 54 0 12 0;
#X connect 54 1 12 1;
#X connect 55 0 56 0;
#X connect 56 0 33 0;
#X connect 57 0 8 0;
#X connect 57 1 51 0;
#X connect 57 1 14 0;
#X connect 57 1 22 0;
#X connect 58 0 59 0;
#X connect 59 0 60 0;
#X connect 60 0 61 0;
#X connect 61 0 40 0;
