#N canvas 197 198 876 603 10;
#X obj 124 333 dac~;
#X obj 123 276 osc~;
#X obj 199 277 osc~;
#X obj 124 112 r speed;
#X obj 124 170 * 100;
#X obj 215 171 * 100;
#X obj 215 113 r temp;
#X obj 303 171 * 100;
#X obj 303 112 r dir;
#X text 120 41 Web based sonification Example;
#X obj 272 277 osc~;
#X connect 1 0 0 0;
#X connect 1 0 0 1;
#X connect 2 0 0 1;
#X connect 2 0 0 0;
#X connect 3 0 4 0;
#X connect 4 0 1 0;
#X connect 5 0 2 0;
#X connect 6 0 5 0;
#X connect 7 0 10 0;
#X connect 8 0 7 0;
#X connect 10 0 0 1;
#X connect 10 0 0 0;
