#N canvas 228 22 1106 782 10;
#X obj 101 388 soundfiler;
#X obj 524 351 phasor~ 0.33;
#X obj 524 476 *~;
#X floatatom 524 325 5 0 0 0 - - -;
#X msg 101 359 read -resize \$1 \$2;
#X obj 101 337 pack s s;
#X obj 177 185 bng 15 250 50 0 empty empty empty 17 7 0 10 -262144
-1 -1;
#X obj 145 119 loadbang;
#X obj 538 161 inlet;
#X obj 524 303 *;
#X msg 891 214 0;
#X obj 891 178 inlet;
#X text 889 152 reset;
#X text 614 67 adjust speed;
#X text 655 572 store our sample;
#X text 100 469 synch phasor~ to sample length;
#X obj 524 735 outlet~;
#X obj 177 205 f \$0;
#X obj 524 547 tabread4~ \$0-loop;
#X obj 551 570 table \$0-loop;
#X obj 523 67 r \$0-length;
#X obj 542 380 r \$0-length;
#X obj 101 442 s \$0-length;
#X obj 491 92 bng 15 250 50 0 empty empty empty 17 7 0 10 -262144 -1
-1;
#X obj 188 420 bng 15 250 50 0 empty empty empty 17 7 0 10 -262144
-1 -1;
#X text 205 418 send to init speed;
#X obj 188 442 s setSpeed;
#X obj 177 226 makefilename %d-loop;
#X obj 177 251 symbol;
#X text 220 206 make local buffer;
#X obj 101 206 symbol \$1;
#X obj 145 143 t b b;
#X obj 607 440 snapshot~;
#X obj 621 421 metro 1;
#X obj 621 402 tgl 15 0 empty empty empty 17 7 0 10 -262144 -1 -1 1
1;
#X obj 607 462 >= 0.99;
#X obj 607 482 sel 1;
#X msg 607 504 0;
#X obj 607 524 s \$0-stop;
#X obj 421 186 r \$0-stop;
#X obj 628 380 loadbang;
#X msg 491 186 1;
#X obj 934 178 r \$0-stop;
#X obj 538 184 t f b;
#X obj 447 735 throw~ out;
#X obj 566 103 r \$2;
#X text 604 104 receive trigger from outside (based on creation argument)
;
#X text 378 31 The Sampler ( to be multiplied as many times as needed
);
#X text 685 526 <- avoid looping;
#X obj 524 702 *~;
#X obj 542 681 r~ \$3;
#X obj 213 119 r \$4;
#X obj 692 380 r \$4;
#X obj 572 210 / \$5;
#X text 609 210 (sampling rate \, 5th argument);
#X obj 524 660 *~;
#X obj 566 126 unpack f f;
#X obj 567 590 r \$2;
#X obj 567 613 unpack f f;
#X obj 542 639 line~;
#X text 590 681 set overall volume (applied for all samplers);
#X text 605 592 set actual sample volume;
#X msg 585 639 \$1 1;
#X obj 572 273 /;
#X msg 572 251 1;
#X obj 572 231 t b f;
#X connect 0 0 22 0;
#X connect 0 0 24 0;
#X connect 1 0 2 0;
#X connect 1 0 32 0;
#X connect 2 0 18 0;
#X connect 3 0 1 0;
#X connect 4 0 0 0;
#X connect 5 0 4 0;
#X connect 6 0 17 0;
#X connect 7 0 31 0;
#X connect 8 0 43 0;
#X connect 9 0 3 0;
#X connect 10 0 1 1;
#X connect 11 0 10 0;
#X connect 17 0 27 0;
#X connect 18 0 55 0;
#X connect 20 0 23 0;
#X connect 20 0 53 0;
#X connect 21 0 2 1;
#X connect 23 0 41 0;
#X connect 24 0 26 0;
#X connect 27 0 28 0;
#X connect 28 0 5 1;
#X connect 30 0 5 0;
#X connect 31 0 30 0;
#X connect 31 1 6 0;
#X connect 32 0 35 0;
#X connect 33 0 32 0;
#X connect 34 0 33 0;
#X connect 35 0 36 0;
#X connect 36 0 37 0;
#X connect 37 0 38 0;
#X connect 39 0 9 0;
#X connect 40 0 34 0;
#X connect 41 0 9 0;
#X connect 42 0 10 0;
#X connect 43 0 9 0;
#X connect 43 1 10 0;
#X connect 45 0 56 0;
#X connect 49 0 16 0;
#X connect 49 0 44 0;
#X connect 50 0 49 1;
#X connect 51 0 31 0;
#X connect 52 0 34 0;
#X connect 53 0 65 0;
#X connect 55 0 49 0;
#X connect 56 0 43 0;
#X connect 57 0 58 0;
#X connect 58 1 62 0;
#X connect 59 0 55 1;
#X connect 62 0 59 0;
#X connect 63 0 9 1;
#X connect 64 0 63 0;
#X connect 65 0 64 0;
#X connect 65 1 63 1;
