#N canvas 91 23 1291 914 10;
#X obj 748 742 hsl 128 15 0 1 0 0 empty empty tone_(0...1) 20 7 1 10
-262144 -1 -1 1397 1;
#X obj 176 421 makenote 100 100;
#X obj 176 444 pack 0 0;
#N canvas 145 44 577 652 random 0;
#X obj 100 99 select 1;
#X obj 100 35 inlet;
#X obj 174 203 * 200;
#X obj 174 231 t a a;
#X obj 449 409 outlet;
#X obj 100 367 random 12;
#X obj 174 144 random 4;
#X obj 174 169 + 1;
#X obj 174 268 delay;
#X obj 100 60 t a a;
#X obj 340 192 spigot 1;
#X obj 175 391 * 12;
#X obj 175 367 random 3;
#X obj 100 479 outlet;
#X obj 259 367 random 40;
#X obj 259 387 + 40;
#X obj 259 473 outlet;
#X obj 100 332 t b b b;
#X obj 269 39 inlet;
#X obj 449 380 - 1;
#X connect 0 0 6 0;
#X connect 1 0 9 0;
#X connect 2 0 3 0;
#X connect 3 0 8 0;
#X connect 3 0 17 0;
#X connect 3 1 19 0;
#X connect 5 0 13 0;
#X connect 6 0 7 0;
#X connect 7 0 2 0;
#X connect 8 0 10 0;
#X connect 9 0 0 0;
#X connect 9 1 10 1;
#X connect 10 0 6 0;
#X connect 12 0 11 0;
#X connect 14 0 15 0;
#X connect 15 0 16 0;
#X connect 17 0 5 0;
#X connect 17 1 12 0;
#X connect 17 2 14 0;
#X connect 18 0 2 1;
#X connect 19 0 4 0;
#X restore 177 242 pd random notes;
#X obj 55 171 tgl 15 0 empty empty empty 17 7 0 10 -262144 -1 -1 1
1;
#X obj 318 509 r \$0-in1;
#X obj 746 791 s \$0-in1;
#X msg 746 767 tone \$1;
#X obj 747 530 s \$0-in1;
#X floatatom 747 485 5 0 0 0 - - -;
#X msg 747 507 mod \$1;
#X obj 820 450 s \$0-in1;
#X floatatom 820 405 5 0 0 0 - - -;
#X msg 820 427 decay \$1;
#X obj 203 470 r \$0-in2;
#X msg 627 466 tone \$1;
#X obj 627 490 s \$0-in2;
#X obj 56 443 pack 0 0;
#X obj 56 420 makenote 100 300;
#N canvas 145 44 577 652 random 0;
#X obj 100 99 select 1;
#X obj 100 35 inlet;
#X obj 174 203 * 200;
#X obj 174 231 t a a;
#X obj 449 409 outlet;
#X obj 100 367 random 12;
#X obj 174 144 random 4;
#X obj 174 169 + 1;
#X obj 174 268 delay;
#X obj 100 60 t a a;
#X obj 340 192 spigot 1;
#X obj 175 391 * 12;
#X obj 175 367 random 3;
#X obj 165 422 +;
#X obj 100 479 outlet;
#X obj 259 367 random 40;
#X obj 259 387 + 40;
#X obj 259 473 outlet;
#X obj 100 332 t b b b;
#X obj 165 451 + 40;
#X obj 269 39 inlet;
#X obj 449 380 - 1;
#X connect 0 0 6 0;
#X connect 1 0 9 0;
#X connect 2 0 3 0;
#X connect 3 0 8 0;
#X connect 3 0 18 0;
#X connect 3 1 21 0;
#X connect 5 0 14 0;
#X connect 6 0 7 0;
#X connect 7 0 2 0;
#X connect 8 0 10 0;
#X connect 9 0 0 0;
#X connect 9 1 10 1;
#X connect 10 0 6 0;
#X connect 11 0 13 1;
#X connect 12 0 11 0;
#X connect 13 0 19 0;
#X connect 15 0 16 0;
#X connect 16 0 17 0;
#X connect 18 0 5 0;
#X connect 18 1 12 0;
#X connect 18 2 15 0;
#X connect 20 0 2 1;
#X connect 21 0 4 0;
#X restore 56 241 pd random notes;
#N canvas 1158 312 450 300 counter 0;
#X floatatom 179 117 0 0 0 0 - - -;
#X msg 122 68 bang;
#X obj 179 92 + 1;
#X obj 122 93 float;
#X obj 122 26 inlet;
#X obj 174 168 outlet;
#X connect 0 0 5 0;
#X connect 1 0 3 0;
#X connect 2 0 0 0;
#X connect 2 0 3 1;
#X connect 3 0 2 0;
#X connect 4 0 1 0;
#X restore 820 144 pd counter;
#X obj 821 120 bng 15 250 50 0 empty empty empty 17 7 0 10 -262144
-1 -1;
#X floatatom 819 180 5 0 0 0 - - -;
#X obj 818 209 % 16;
#X obj 816 244 == 0;
#X obj 820 312 random 4;
#X obj 821 334 sel 0 1 2 3;
#X msg 824 366 0;
#X obj 816 290 bng 15 250 50 0 empty empty empty 17 7 0 10 -262144
-1 -1;
#X obj 816 264 sel 1;
#N canvas 15 98 781 670 presets 0;
#X obj -1 30 inlet;
#X obj -1 68 route default large large_noexcursion huge huge_noexcursion
tadada;
#X obj -1 587 s \$0-GUI;
#X msg -1 134 predelay 0 \, bandwidth 22050 \, damping 22050 \, decay
0.5 \, input_diffusion1 0.75 \, input_diffusion2 0.625 \, decay_diffusion1
0.7 \, decay_diffusion2 0.5 \, excursion 0.53761 \;;
#X msg 135 274 predelay 0 \, bandwidth 10000 \, damping 4637 \, decay
0.98 \, input_diffusion1 0.685 \, input_diffusion2 0.779 \, decay_diffusion1
0.74 \, decay_diffusion2 0.68 \, excursion 0 \,;
#X msg 67 197 predelay 0 \, bandwidth 10000 \, damping 4637 \, decay
0.98 \, input_diffusion1 0.685 \, input_diffusion2 0.779 \, decay_diffusion1
0.74 \, decay_diffusion2 0.68 \, excursion 0.53761 \,;
#X msg 206 350 predelay 10 \, bandwidth 10000 \, damping 4637 \, decay
0.99 \, input_diffusion1 0.685 \, input_diffusion2 0.779 \, decay_diffusion1
0.889 \, decay_diffusion2 0.84 \, excursion 0.53761 \;;
#X msg 340 525 predelay 216.535 \, bandwidth 22050 \, damping 22050
\, decay 0.677165 \, input_diffusion1 0.850394 \, input_diffusion2
0.92126 \, decay_diffusion1 0.80315 \, decay_diffusion2 0.818898 \,
excursion 0.11811 \;;
#X msg 272 437 predelay 10 \, bandwidth 10000 \, damping 4637 \, decay
0.99 \, input_diffusion1 0.685 \, input_diffusion2 0.779 \, decay_diffusion1
0.889 \, decay_diffusion2 0.84 \, excursion 0 \;;
#X connect 0 0 1 0;
#X connect 1 0 3 0;
#X connect 1 1 5 0;
#X connect 1 2 4 0;
#X connect 1 3 6 0;
#X connect 1 4 8 0;
#X connect 1 5 7 0;
#X connect 3 0 2 0;
#X connect 4 0 2 0;
#X connect 5 0 2 0;
#X connect 6 0 2 0;
#X connect 7 0 2 0;
#X connect 8 0 2 0;
#X restore 1027 506 pd presets;
#X msg 1068 475 large;
#X msg 1115 475 tadada;
#X obj 309 621 hsl 128 15 0 1 0 0 empty empty empty -2 -8 0 10 -262144
-1 -1 10795 1;
#X msg 306 640 dry \$1;
#X obj 306 565 loadbang;
#X msg 861 366 150;
#X obj 358 641 r \$0-GUI;
#X msg 627 417 0.1;
#X msg 668 438 0.2;
#X msg 710 436 0.3;
#X obj 699 242 == 0;
#X obj 699 288 bng 15 250 50 0 empty empty empty 17 7 0 10 -262144
-1 -1;
#X obj 699 262 sel 1;
#X obj 699 211 % 8;
#X obj 703 310 random 3;
#X obj 704 332 sel 0 1 2;
#X obj 1024 347 == 0;
#X obj 1024 393 bng 15 250 50 0 empty empty empty 17 7 0 10 -262144
-1 -1;
#X obj 1024 367 sel 1;
#X obj 1026 422 random 3;
#X obj 1027 444 sel 0 1 2;
#X obj 1024 319 % 64;
#X msg 306 596 0.85;
#X obj 433 567 s \$0-in2;
#X msg 433 544 mod \$1;
#X msg 264 216 200;
#X obj 143 129 loadbang;
#X msg 143 213 400;
#X obj 865 263 loadbang;
#X msg 433 521 1;
#X obj 433 495 loadbang;
#X obj 56 363 patches/m_minorscale 40 2 1;
#X obj 177 336 patches/m_minorscale 60 2 1;
#X obj 177 536 patches/s_rhodey mypiano;
#X obj 56 496 patches/s_rhodey mypiano2;
#X obj 179 674 patches/e_platereverb rev;
#X obj 161 816 dac~;
#X msg 951 365 200;
#X msg 905 366 180;
#X obj 745 460 random 4;
#X obj 742 370 bng 15 250 50 0 empty empty empty 17 7 0 10 -262144
-1 -1;
#X msg 1027 475 huge;
#X obj 41 274 s \$0-events;
#X obj 820 93 r \$0-events;
#X text 297 242 create random notes;
#X text 356 335 map the generated values to;
#X text 357 353 a musical minor scale;
#X text 268 468 generate sounds using RjDj's Rhodes emulator;
#X text 347 677 apply reverb to one of the channels;
#X text 904 93 receive synched events;
#X text 895 142 count ad infinity;
#X text 889 207 filter event occurences using modulus;
#X text 885 596 control parameters with these events. select from a
small random range \, map these random values to some meaningful presets
;
#X text 36 50 This patch is using objects from the RjLib PureData library.
Read more in the repository's readme file.;
#X obj 68 391 s p5-note1;
#X obj 231 364 s p5-note2;
#X obj 1128 540 s p5-reverb;
#X obj 891 742 s p5-tone;
#X obj 745 719 / 100;
#N canvas 1158 312 450 300 counter 0;
#X floatatom 179 117 0 0 0 0 - - -;
#X msg 122 68 bang;
#X obj 179 92 + 1;
#X obj 122 93 float;
#X obj 122 26 inlet;
#X obj 174 168 outlet;
#X connect 0 0 5 0;
#X connect 1 0 3 0;
#X connect 2 0 0 0;
#X connect 2 0 3 1;
#X connect 3 0 2 0;
#X connect 4 0 1 0;
#X restore 745 618 pd counter;
#X floatatom 745 696 5 0 0 0 - - -;
#X obj 745 596 bng 15 250 50 0 empty empty empty 17 7 0 10 -262144
-1 -1;
#X obj 745 572 r \$0-events;
#X obj 745 643 % 60;
#X obj 745 670 + 10;
#X obj 1128 515 symbol;
#X obj 1066 367 r init;
#X obj 889 427 s p5-decay;
#X obj 713 176 s p5-count;
#X obj 178 273 s \$0-events2;
#X obj 709 93 r \$0-events2;
#X obj 709 133 bng 15 250 50 0 empty empty empty 17 7 0 10 -262144
-1 -1;
#N canvas 1158 312 450 300 counter 0;
#X floatatom 179 117 0 0 0 0 - - -;
#X msg 122 68 bang;
#X obj 179 92 + 1;
#X obj 122 93 float;
#X obj 122 26 inlet;
#X obj 174 168 outlet;
#X connect 0 0 5 0;
#X connect 1 0 3 0;
#X connect 2 0 0 0;
#X connect 2 0 3 1;
#X connect 3 0 2 0;
#X connect 4 0 1 0;
#X restore 713 154 pd counter;
#X connect 0 0 7 0;
#X connect 1 0 2 0;
#X connect 1 1 2 1;
#X connect 2 0 64 0;
#X connect 3 0 63 0;
#X connect 3 0 100 0;
#X connect 3 1 1 1;
#X connect 3 2 1 2;
#X connect 4 0 3 0;
#X connect 4 0 19 0;
#X connect 5 0 64 1;
#X connect 7 0 6 0;
#X connect 9 0 10 0;
#X connect 10 0 8 0;
#X connect 12 0 13 0;
#X connect 12 0 98 0;
#X connect 13 0 11 0;
#X connect 14 0 65 1;
#X connect 15 0 16 0;
#X connect 17 0 65 0;
#X connect 18 0 17 0;
#X connect 18 1 17 1;
#X connect 19 0 62 0;
#X connect 19 0 73 0;
#X connect 19 1 18 1;
#X connect 19 2 18 2;
#X connect 20 0 22 0;
#X connect 21 0 20 0;
#X connect 22 0 23 0;
#X connect 22 0 44 0;
#X connect 22 0 52 0;
#X connect 23 0 24 0;
#X connect 24 0 29 0;
#X connect 25 0 26 0;
#X connect 26 0 27 0;
#X connect 26 1 36 0;
#X connect 26 2 69 0;
#X connect 26 3 68 0;
#X connect 27 0 12 0;
#X connect 28 0 25 0;
#X connect 29 0 28 0;
#X connect 31 0 30 0;
#X connect 31 0 96 0;
#X connect 32 0 30 0;
#X connect 32 0 96 0;
#X connect 33 0 34 0;
#X connect 34 0 66 2;
#X connect 35 0 53 0;
#X connect 36 0 12 0;
#X connect 37 0 66 2;
#X connect 38 0 15 0;
#X connect 39 0 15 0;
#X connect 40 0 15 0;
#X connect 41 0 43 0;
#X connect 42 0 45 0;
#X connect 43 0 42 0;
#X connect 44 0 41 0;
#X connect 45 0 46 0;
#X connect 46 0 38 0;
#X connect 46 1 39 0;
#X connect 46 2 40 0;
#X connect 46 2 71 0;
#X connect 47 0 49 0;
#X connect 48 0 50 0;
#X connect 49 0 48 0;
#X connect 50 0 51 0;
#X connect 51 0 72 0;
#X connect 51 1 31 0;
#X connect 51 2 32 0;
#X connect 52 0 47 0;
#X connect 53 0 33 0;
#X connect 55 0 54 0;
#X connect 56 0 3 1;
#X connect 57 0 56 0;
#X connect 57 0 58 0;
#X connect 57 0 4 0;
#X connect 58 0 19 1;
#X connect 59 0 28 0;
#X connect 59 0 42 0;
#X connect 60 0 55 0;
#X connect 61 0 60 0;
#X connect 62 0 18 0;
#X connect 62 0 85 0;
#X connect 63 0 1 0;
#X connect 63 0 86 0;
#X connect 64 0 66 1;
#X connect 64 0 66 0;
#X connect 65 0 67 0;
#X connect 65 0 67 1;
#X connect 66 0 67 0;
#X connect 66 1 67 1;
#X connect 68 0 12 0;
#X connect 69 0 12 0;
#X connect 70 0 9 0;
#X connect 71 0 70 0;
#X connect 72 0 30 0;
#X connect 72 0 96 0;
#X connect 74 0 21 0;
#X connect 74 0 102 0;
#X connect 89 0 0 0;
#X connect 89 0 88 0;
#X connect 90 0 94 0;
#X connect 91 0 89 0;
#X connect 92 0 90 0;
#X connect 93 0 92 0;
#X connect 94 0 95 0;
#X connect 95 0 91 0;
#X connect 96 0 87 0;
#X connect 97 0 48 0;
#X connect 101 0 102 0;
#X connect 102 0 103 0;
#X connect 103 0 99 0;
