#N canvas 63 130 1061 787 10;
#X obj 720 223 tgl 15 0 empty empty empty 17 7 0 10 -262144 -1 -1 1
1;
#X msg 720 254 metroON \$1;
#X msg 527 231 metrospeed \$1;
#X obj -124 690 dac~;
#X obj -47 448 bng 15 250 50 0 empty empty Load_a_SoundFile_First 17
7 0 10 -262144 -1 -1;
#X obj -107 285 sig~;
#X msg 217 224 midipitch \$1;
#X obj -124 657 *~;
#X obj -56 654 *~;
#X floatatom 8 592 5 0 0 0 - - -;
#X msg 360 224 amp \$1;
#X msg 417 224 pan \$1;
#X msg 300 595 posrnd \$1;
#X msg 218 377 hanning;
#X msg 273 377 decay;
#X msg 321 377 attack;
#X msg 379 389 fwd;
#X msg 409 389 rev;
#X msg 531 393 grainvoices \$1;
#X msg 725 392 grainlength \$1;
#X msg 299 224 pitch \$1;
#X msg 382 595 panrnd \$1;
#X msg 458 595 amprnd \$1;
#X obj 725 371 nbx 3 14 0 1 0 1 empty empty empty 0 -8 0 10 -262144
-1 -1 0.02 256;
#X obj 300 574 nbx 3 14 0 1 0 1 empty empty empty 0 -8 0 10 -262144
-1 -1 0.07 256;
#X obj 458 571 nbx 3 14 0 1 0 1 empty empty empty 0 -8 0 10 -262144
-1 -1 0.07 256;
#X obj 382 572 nbx 3 14 0 1 0 1 empty empty empty 0 -8 0 10 -262144
-1 -1 0.07 256;
#X obj 531 372 nbx 3 14 1 32 0 1 empty empty empty 0 -8 0 10 -262144
-1 -1 15 256;
#X obj 417 205 nbx 3 14 -1 1 0 1 empty empty empty 0 -8 0 10 -262144
-1 -1 0.03 256;
#X obj 360 204 nbx 3 14 0 1 0 1 empty empty empty 0 -8 0 10 -262144
-1 -1 1 256;
#X obj 217 205 nbx 3 14 0 127 0 1 empty empty empty 0 -8 0 10 -262144
-1 -1 41 256;
#X obj 527 204 nbx 3 14 1 2000 0 1 empty empty empty 0 -8 0 10 -262144
-1 -1 42 256;
#X obj 720 182 loadbang;
#X msg 720 203 1;
#X obj 299 205 nbx 3 14 -100 100 0 1 empty empty empty 0 -8 0 10 -262144
-1 -1 0 256;
#X obj 49 334 tgl 15 0 empty empty empty 17 7 0 10 -262144 -1 -1 1
1;
#N canvas 770 93 450 300 switch 1;
#X obj 54 46 inlet~;
#X obj 102 45 inlet~;
#X obj 145 45 inlet;
#X obj 130 100 *~;
#X obj 55 101 *~;
#X obj 145 72 ==;
#X obj 55 136 outlet~;
#X obj 37 37;
#X connect 0 0 4 0;
#X connect 1 0 3 0;
#X connect 2 0 4 1;
#X connect 2 0 5 0;
#X connect 4 0 6 0;
#X connect 5 0 3 1;
#X restore -106 428 pd switch;
#X obj -107 333 lop~ 7;
#X obj 8 537 loadbang;
#X msg 8 567 1;
#X obj 379 414 list prepend direction;
#X obj 378 439 list trim;
#X obj 218 412 list prepend envelope;
#X obj 218 439 list trim;
#X floatatom -107 171 5 0 0 0 - - -;
#X obj -125 501 patches/s_graincloud;
#X obj 378 463 s \$0-graincloud;
#X obj 531 416 s \$0-graincloud;
#X obj 725 418 s \$0-graincloud;
#X obj 368 644 s \$0-graincloud;
#X obj 219 467 s \$0-graincloud;
#X obj 299 285 s \$0-graincloud;
#X obj 527 284 s \$0-graincloud;
#X obj -9 474 r \$0-graincloud;
#X obj 720 282 s \$0-graincloud;
#X obj 49 297 loadbang;
#X obj -61 333 phasor~ 0.2;
#X obj -60 366 *~ 2;
#X obj -106 241 -;
#X msg -107 215 1;
#X obj -106 193 t f b;
#X obj -107 263 + 1;
#X obj -107 307 clip~ 1 2;
#X obj -104 151 hsl 128 15 0 1 0 0 empty empty empty -2 -8 0 10 -262144
-1 -1 0 1;
#X text -108 41 Sonic Instruments Workshop / 2015;
#X text -108 69 Control sample position ( 0 - 1 ) & additional parameters
of granular synthesis;
#X text 69 332 manual postition;
#X obj 527 182 r P5-density;
#X obj -107 121 r P5-pos;
#X obj 531 344 r P5-voices;
#X obj 725 347 r P5-length;
#X floatatom 382 543 5 0 0 0 - - -;
#X obj 382 516 r P5-randomize;
#X text -108 22 Granular Field :: 32 channel granular sequencer;
#X obj 607 467 print;
#X connect 0 0 1 0;
#X connect 1 0 54 0;
#X connect 2 0 52 0;
#X connect 4 0 45 2;
#X connect 5 0 62 0;
#X connect 6 0 51 0;
#X connect 7 0 3 0;
#X connect 8 0 3 1;
#X connect 9 0 7 1;
#X connect 9 0 8 1;
#X connect 10 0 51 0;
#X connect 11 0 51 0;
#X connect 12 0 49 0;
#X connect 13 0 42 0;
#X connect 14 0 42 0;
#X connect 15 0 42 0;
#X connect 16 0 40 0;
#X connect 17 0 40 0;
#X connect 18 0 47 0;
#X connect 18 0 74 0;
#X connect 19 0 48 0;
#X connect 20 0 51 0;
#X connect 21 0 49 0;
#X connect 22 0 49 0;
#X connect 23 0 19 0;
#X connect 24 0 12 0;
#X connect 25 0 22 0;
#X connect 26 0 21 0;
#X connect 27 0 18 0;
#X connect 28 0 11 0;
#X connect 29 0 10 0;
#X connect 30 0 6 0;
#X connect 31 0 2 0;
#X connect 32 0 33 0;
#X connect 33 0 0 0;
#X connect 34 0 20 0;
#X connect 35 0 36 2;
#X connect 36 0 45 1;
#X connect 37 0 36 0;
#X connect 38 0 39 0;
#X connect 39 0 9 0;
#X connect 40 0 41 0;
#X connect 41 0 46 0;
#X connect 42 0 43 0;
#X connect 43 0 50 0;
#X connect 44 0 60 0;
#X connect 45 0 7 0;
#X connect 45 1 8 0;
#X connect 53 0 45 3;
#X connect 55 0 35 0;
#X connect 56 0 57 0;
#X connect 57 0 36 1;
#X connect 58 0 61 0;
#X connect 59 0 58 0;
#X connect 60 0 58 1;
#X connect 60 1 59 0;
#X connect 61 0 5 0;
#X connect 62 0 37 0;
#X connect 63 0 44 0;
#X connect 67 0 31 0;
#X connect 68 0 63 0;
#X connect 69 0 27 0;
#X connect 70 0 23 0;
#X connect 71 0 24 0;
#X connect 71 0 26 0;
#X connect 71 0 25 0;
#X connect 72 0 71 0;
