#N canvas 414 119 991 756 10;
#X obj 113 91 r sample1;
#X obj 385 483 dac~;
#X msg 114 161 open sample1.wav \, start;
#X obj 114 187 readsf~;
#X floatatom 795 318 5 0 0 0 - - -;
#X text 112 54 Messages are triggering the samples;
#X obj 268 186 readsf~;
#X obj 425 186 readsf~;
#X obj 584 187 readsf~;
#X text 435 483 send to the speakers;
#X obj 267 90 r sample2;
#X obj 424 90 r sample3;
#X obj 583 91 r sample4;
#X msg 584 161 open sample4.wav \, start;
#X msg 425 160 open sample3.wav \, start;
#X msg 268 160 open sample2.wav \, start;
#N canvas 550 284 874 556 panning 0;
#X obj 194 270 sig~;
#X obj 547 295 *~;
#X obj 166 303 *~;
#X obj 203 239 -;
#X msg 206 208 1 \$1;
#X obj 656 196 sig~;
#X obj 152 129 inlet~;
#X obj 507 121 inlet~;
#X obj 708 118 inlet;
#X obj 203 384 outlet~;
#X obj 548 371 outlet~;
#X text 241 58 make a simple panning on the left / right audiochannel
;
#X connect 0 0 2 1;
#X connect 1 0 10 0;
#X connect 2 0 9 0;
#X connect 3 0 0 0;
#X connect 4 0 3 0;
#X connect 5 0 1 1;
#X connect 6 0 2 0;
#X connect 7 0 1 0;
#X connect 8 0 4 0;
#X connect 8 0 5 0;
#X restore 371 395 pd panning;
#X text 706 54 This inlet controls panning left to right;
#X obj 795 88 r panning;
#X connect 0 0 2 0;
#X connect 2 0 3 0;
#X connect 3 0 16 0;
#X connect 3 0 16 1;
#X connect 4 0 16 2;
#X connect 6 0 16 0;
#X connect 6 0 16 1;
#X connect 7 0 16 0;
#X connect 7 0 16 1;
#X connect 8 0 16 0;
#X connect 8 0 16 1;
#X connect 10 0 15 0;
#X connect 11 0 14 0;
#X connect 12 0 13 0;
#X connect 13 0 8 0;
#X connect 14 0 7 0;
#X connect 15 0 6 0;
#X connect 16 0 1 0;
#X connect 16 1 1 1;
#X connect 18 0 4 0;
